#!OML:ASF H:\Punching\Project 1\Capture day 1\Session 1\female.ASF
:FULLY-SPECIFIED
:DEGREES
2405
root 4.12533 14.5186 -0.45636 17.3383 19.5505 4.23804
lowerback -2.42792 -1.40109 -1.72856
upperback -7.59315 -1.75806 2.05692
thorax -6.41935 -0.683888 3.16718
lowerneck -14.2859 -2.92277 2.5625
upperneck 28.6034 -4.46538 -1.28254
head 11.5968 -1.85915 -1.52911
rclavicle 3.52284e-014 1.35174e-014
rhumerus 17.326 10.3034 -60.5777
rradius 133.331
rwrist -15.0202
rhand -32.9298 11.361
rfingers 7.12502
rthumb -6.14647 -18.5298
lclavicle 3.52284e-014 1.35174e-014
lhumerus 9.53891 -28.6214 71.3447
lradius 136.846
lwrist 0.834477
lhand -22.7849 1.81785
lfingers 7.12502
lthumb 3.65083 31.7663
rfemur -56.3409 -17.0922 9.9024
rtibia 51.7554
rfoot -4.37775 -25.0999
rtoes 6.1727
lfemur -1.44136 -15.9934 -16.3981
ltibia 21.1599
lfoot -213.332 207.745
ltoes -8.81358
2406
root 4.17627 14.5302 -0.524019 17.3117 19.5539 4.02269
lowerback -2.48647 -1.2507 -1.57387
upperback -7.59496 -1.54786 2.13663
thorax -6.40336 -0.58523 3.15638
lowerneck -14.2871 -3.04296 2.47613
upperneck 28.5967 -4.63483 -1.21036
head 11.595 -1.93483 -1.51078
rclavicle -3.59117e-014 2.22639e-014
rhumerus 17.2187 10.4604 -60.7337
rradius 133.431
rwrist -14.5967
rhand -32.9409 11.5725
rfingers 7.12502
rthumb -6.15714 -18.3181
lclavicle -3.59117e-014 2.22639e-014
lhumerus 9.3815 -28.5957 71.42
lradius 136.844
lwrist 0.927377
lhand -22.7664 1.52384
lfingers 7.12502
lthumb 3.66869 31.472
rfemur -56.2349 -17.2061 9.97383
rtibia 51.4194
rfoot -4.77024 -24.7216
rtoes 4.90152
lfemur -1.88851 -15.8772 -16.3895
ltibia 21.5607
lfoot -213.525 207.707
ltoes -8.43331
2407
root 4.2233 14.5395 -0.58787 17.2947 19.5422 3.86981
lowerback -2.54107 -1.10878 -1.48658
upperback -7.58796 -1.35215 2.18533
thorax -6.37819 -0.491146 3.15141
lowerneck -14.3251 -3.15344 2.40465
upperneck 28.6126 -4.79588 -1.13915
head 11.6096 -2.00459 -1.49563
rclavicle 1.51387e-014 -3.97569e-015
rhumerus 17.1281 10.6062 -60.8904
rradius 133.517
rwrist -14.1378
rhand -32.9728 11.7533
rfingers 7.12502
rthumb -6.18795 -18.1364
lclavicle 1.51387e-014 -3.97569e-015
lhumerus 9.26363 -28.5537 71.4369
lradius 136.851
lwrist 1.05568
lhand -22.7785 1.27152
lfingers 7.12502
lthumb 3.65702 31.2199
rfemur -56.1571 -17.3957 10.0599
rtibia 51.2131
rfoot -5.31083 -24.1427
rtoes 3.52278
lfemur -2.31758 -15.7296 -16.4238
ltibia 21.9687
lfoot -213.667 207.627
ltoes -8.17039
2408
root 4.26591 14.5469 -0.647714 17.2904 19.5195 3.79354
lowerback -2.58824 -0.978667 -1.48202
upperback -7.57273 -1.17577 2.19879
thorax -6.34631 -0.403274 3.15672
lowerneck -14.3999 -3.25426 2.34795
upperneck 28.6518 -4.94996 -1.06446
head 11.641 -2.06842 -1.48228
rclavicle 1.32999e-014 -7.95139e-016
rhumerus 17.0467 10.7509 -61.0581
rradius 133.593
rwrist -13.6811
rhand -33.022 11.8797
rfingers 7.12502
rthumb -6.23544 -18.0086
lclavicle 1.32999e-014 -7.95139e-016
lhumerus 9.18239 -28.5028 71.3945
lradius 136.874
lwrist 1.20516
lhand -22.8077 1.10278
lfingers 7.12502
lthumb 3.62882 31.0516
rfemur -56.0976 -17.6298 10.1232
rtibia 51.1366
rfoot -5.92104 -23.37
rtoes 2.14555
lfemur -2.71691 -15.5614 -16.5165
ltibia 22.3576
lfoot -213.76 207.512
ltoes -7.96772
2409
root 4.30381 14.553 -0.703627 17.2984 19.4835 3.79722
lowerback -2.62627 -0.859236 -1.56601
upperback -7.55878 -1.017 2.17552
thorax -6.31939 -0.320179 3.17421
lowerneck -14.4666 -3.34861 2.30175
upperneck 28.7048 -5.09935 -0.984285
head 11.6764 -2.12794 -1.46825
rclavicle -4.4329e-014 1.19271e-014
rhumerus 16.9447 10.8996 -61.245
rradius 133.663
rwrist -13.2834
rhand -33.0797 12.0111
rfingers 7.12502
rthumb -6.2912 -17.8755
lclavicle -4.4329e-014 1.19271e-014
lhumerus 9.11079 -28.4642 71.3141
lradius 136.917
lwrist 1.34963
lhand -22.8445 1.06958
lfingers 7.12502
lthumb 3.59329 31.019
rfemur -56.0459 -17.8639 10.136
rtibia 51.1789
rfoot -6.50822 -22.4538
rtoes 0.874887
lfemur -3.07733 -15.3761 -16.675
ltibia 22.7067
lfoot -213.801 207.379
ltoes -7.80113
2410
root 4.33705 14.5582 -0.755651 17.3169 19.4335 3.8819
lowerback -2.6502 -0.749455 -1.73823
upperback -7.54942 -0.874336 2.11458
thorax -6.30438 -0.241037 3.20278
lowerneck -14.5045 -3.4374 2.26284
upperneck 28.762 -5.24534 -0.892852
head 11.7081 -2.18366 -1.45027
rclavicle 1.46231e-014 1.98785e-014
rhumerus 16.8108 11.0539 -61.4588
rradius 133.734
rwrist -12.984
rhand -33.1313 12.1484
rfingers 7.12502
rthumb -6.34099 -17.7367
lclavicle 1.46231e-014 1.98785e-014
lhumerus 9.03212 -28.4475 71.2098
lradius 136.988
lwrist 1.4841
lhand -22.8586 1.19992
lfingers 7.12502
lthumb 3.57966 31.1496
rfemur -55.9863 -18.0593 10.0736
rtibia 51.3214
rfoot -7.01867 -21.4615
rtoes -0.201146
lfemur -3.38642 -15.1878 -16.9047
ltibia 22.9957
lfoot -213.786 207.246
ltoes -7.65924
2411
root 4.36582 14.5632 -0.803917 17.3371 19.364 4.02449
lowerback -2.65656 -0.646268 -1.9789
upperback -7.54868 -0.742997 2.02366
thorax -6.30837 -0.164168 3.23926
lowerneck -14.5 -3.52195 2.22648
upperneck 28.8224 -5.38802 -0.790235
head 11.7331 -2.23627 -1.42713
rclavicle 6.21016e-014 1.19271e-014
rhumerus 16.6278 11.2193 -61.7027
rradius 133.821
rwrist -12.8061
rhand -33.1757 12.2881
rfingers 7.12502
rthumb -6.3838 -17.5957
lclavicle 6.21016e-014 1.19271e-014
lhumerus 8.9292 -28.4569 71.098
lradius 137.082
lwrist 1.58843
lhand -22.8472 1.47079
lfingers 7.12502
lthumb 3.59065 31.4203
rfemur -55.8987 -18.1683 9.93795
rtibia 51.5289
rfoot -7.36039 -20.4525
rtoes -1.17288
lfemur -3.63514 -15.0073 -17.1881
ltibia 23.2165
lfoot -213.734 207.125
ltoes -7.51095
2412
root 4.39088 14.5678 -0.847312 17.3497 19.2703 4.2043
lowerback -2.66301 -0.545979 -2.26737
upperback -7.55046 -0.617397 1.908
thorax -6.31544 -0.0881239 3.2769
lowerneck -14.4239 -3.61071 2.20524
upperneck 28.8551 -5.53702 -0.69046
head 11.7323 -2.29163 -1.40593
rclavicle -4.40557e-014 7.95139e-016
rhumerus 16.3965 11.3904 -61.9812
rradius 133.923
rwrist -12.7524
rhand -33.2044 12.4529
rfingers 7.12502
rthumb -6.41157 -17.4301
lclavicle -4.40557e-014 7.95139e-016
lhumerus 8.79325 -28.4938 70.993
lradius 137.183
lwrist 1.66716
lhand -22.8338 1.69607
lfingers 7.12502
lthumb 3.60363 31.6454
rfemur -55.7576 -18.163 9.73313
rtibia 51.7562
rfoot -7.51894 -19.4791
rtoes -1.95176
lfemur -3.80992 -14.832 -17.5098
ltibia 23.3649
lfoot -213.657 207.021
ltoes -7.38256
2413
root 4.41283 14.5726 -0.887037 17.3411 19.1683 4.38463
lowerback -2.65037 -0.44839 -2.55016
upperback -7.55381 -0.496671 1.77434
thorax -6.33579 -0.0152235 3.29279
lowerneck -14.3276 -3.69408 2.20015
upperneck 28.8898 -5.68258 -0.58911
head 11.728 -2.34364 -1.38583
rclavicle 1.27968e-014 2.3059e-014
rhumerus 16.1234 11.5588 -62.2957
rradius 134.043
rwrist -12.7925
rhand -33.2176 12.6227
rfingers 7.12502
rthumb -6.4243 -17.2599
lclavicle 1.27968e-014 2.3059e-014
lhumerus 8.64381 -28.5528 70.8885
lradius 137.28
lwrist 1.72461
lhand -22.8126 1.96595
lfingers 7.12502
lthumb 3.62406 31.9149
rfemur -55.5314 -18.0216 9.47339
rtibia 51.9401
rfoot -7.53367 -18.6139
rtoes -2.57225
lfemur -3.91557 -14.6727 -17.8308
ltibia 23.4465
lfoot -213.552 206.943
ltoes -7.28402
2414
root 4.43218 14.5778 -0.92279 17.3099 19.0602 4.54563
lowerback -2.63041 -0.354284 -2.80574
upperback -7.54975 -0.381196 1.63043
thorax -6.35269 0.0528778 3.28263
lowerneck -14.2413 -3.7669 2.21766
upperneck 28.9266 -5.81894 -0.490087
head 11.7261 -2.38932 -1.3694
rclavicle 2.1183e-014 -7.95139e-015
rhumerus 15.8349 11.7187 -62.6408
rradius 134.167
rwrist -12.8861
rhand -33.219 12.7971
rfingers 7.12502
rthumb -6.42568 -17.0854
lclavicle 2.1183e-014 -7.95139e-015
lhumerus 8.49791 -28.6125 70.78
lradius 137.365
lwrist 1.7817
lhand -22.7791 2.20317
lfingers 7.12502
lthumb 3.65643 32.1516
rfemur -55.2066 -17.7176 9.15437
rtibia 52.0159
rfoot -7.4301 -17.9493
rtoes -2.92474
lfemur -3.96037 -14.5314 -18.1313
ltibia 23.4738
lfoot -213.439 206.888
ltoes -7.19312
2415
root 4.4495 14.5838 -0.954638 17.2548 18.963 4.67105
lowerback -2.60848 -0.267909 -3.00787
upperback -7.53681 -0.275888 1.48223
thorax -6.3606 0.112213 3.23795
lowerneck -14.1896 -3.82384 2.24965
upperneck 28.9817 -5.93942 -0.387343
head 11.7387 -2.42509 -1.35319
rclavicle 4.32481e-014 1.11319e-014
rhumerus 15.5417 11.8703 -63.0122
rradius 134.277
rwrist -12.9866
rhand -33.2215 13.0098
rfingers 7.12502
rthumb -6.42802 -16.8726
lclavicle 4.32481e-014 1.11319e-014
lhumerus 8.36864 -28.6706 70.6665
lradius 137.439
lwrist 1.84077
lhand -22.741 2.43526
lfingers 7.12502
lthumb 3.69319 32.383
rfemur -54.7738 -17.248 8.77116
rtibia 51.9241
rfoot -7.27159 -17.5378
rtoes -2.80733
lfemur -3.96058 -14.4125 -18.3908
ltibia 23.4674
lfoot -213.323 206.858
ltoes -7.11193
2416
root 4.46508 14.5907 -0.982613 17.1782 18.888 4.74996
lowerback -2.59065 -0.193743 -3.14249
upperback -7.51168 -0.185971 1.33685
thorax -6.35157 0.159354 3.15851
lowerneck -14.201 -3.85815 2.29038
upperneck 29.0663 -6.03556 -0.276999
head 11.7763 -2.44662 -1.33473
rclavicle 3.45388e-014 1.35174e-014
rhumerus 15.2655 12.0125 -63.4008
rradius 134.36
rwrist -13.0448
rhand -33.2262 13.2311
rfingers 7.12502
rthumb -6.43257 -16.6512
lclavicle 3.45388e-014 1.35174e-014
lhumerus 8.264 -28.7141 70.5438
lradius 137.51
lwrist 1.90433
lhand -22.6882 2.68378
lfingers 7.12502
lthumb 3.74416 32.6306
rfemur -54.2412 -16.6189 8.32821
rtibia 51.6305
rfoot -7.05755 -17.3958
rtoes -2.20676
lfemur -3.93381 -14.3237 -18.5953
ltibia 23.446
lfoot -213.208 206.861
ltoes -7.02652
2417
root 4.47902 14.5984 -1.00653 17.0886 18.839 4.78259
lowerback -2.5914 -0.131645 -3.21031
upperback -7.48449 -0.110601 1.1949
thorax -6.3279 0.195068 3.04545
lowerneck -14.229 -3.87674 2.33281
upperneck 29.167 -6.11423 -0.156198
head 11.8245 -2.45804 -1.31109
rclavicle 2.68856e-014 3.97569e-015
rhumerus 14.9885 12.1486 -63.8014
rradius 134.408
rwrist -13.029
rhand -33.2485 13.4668
rfingers 7.12502
rthumb -6.45412 -16.4149
lclavicle 2.68856e-014 3.97569e-015
lhumerus 8.17083 -28.7551 70.4224
lradius 137.575
lwrist 1.96744
lhand -22.625 2.94221
lfingers 7.12502
lthumb 3.80525 32.888
rfemur -53.6369 -15.8506 7.83633
rtibia 51.1371
rfoot -6.7738 -17.5241
rtoes -1.16109
lfemur -3.89782 -14.271 -18.7428
ltibia 23.4287
lfoot -213.112 206.893
ltoes -6.90586
2418
root 4.49161 14.6063 -1.02609 16.991 18.8228 4.77424
lowerback -2.62063 -0.0852417 -3.21759
upperback -7.45566 -0.0542003 1.05895
thorax -6.28391 0.217576 2.90522
lowerneck -14.2717 -3.88096 2.37328
upperneck 29.2859 -6.17564 -0.0277735
head 11.8839 -2.46013 -1.28266
rclavicle -4.5969e-016 3.73715e-014
rhumerus 14.7289 12.281 -64.2029
rradius 134.411
rwrist -12.932
rhand -33.2891 13.6825
rfingers 7.12502
rthumb -6.49328 -16.198
lclavicle -4.5969e-016 3.73715e-014
lhumerus 8.08372 -28.7895 70.3071
lradius 137.636
lwrist 2.0283
lhand -22.5512 3.18694
lfingers 7.12502
lthumb 3.8765 33.1314
rfemur -52.9927 -14.9972 7.32158
rtibia 50.4854
rfoot -6.43256 -17.8932
rtoes 0.259874
lfemur -3.86199 -14.2571 -18.8365
ltibia 23.4277
lfoot -213.035 206.958
ltoes -6.78306
